<svg width="20" height="17" viewBox="0 0 20 17" fill="green" xmlns="http://www.w3.org/2000/svg">
    <path d="M14.1667 15.0249H4.16667C3.50363 15.0249 2.86774 14.7615 2.3989 14.2927C1.93006 13.8238 1.66667 13.1879 1.66667 12.5249V5.85823C1.66667 5.63722 1.57887 5.42526 1.42259 5.26898C1.26631 5.1127 1.05435 5.0249 0.833333 5.0249C0.61232 5.0249 0.400358 5.1127 0.244078 5.26898C0.0877974 5.42526 0 5.63722 0 5.85823L0 12.5249C0 13.63 0.438987 14.6898 1.22039 15.4712C2.00179 16.2526 3.0616 16.6916 4.16667 16.6916H14.1667C14.3877 16.6916 14.5996 16.6038 14.7559 16.4475C14.9122 16.2912 15 16.0792 15 15.8582C15 15.6372 14.9122 15.4253 14.7559 15.269C14.5996 15.1127 14.3877 15.0249 14.1667 15.0249ZM17.5 0.0249023H5.83333C5.17029 0.0249023 4.53441 0.288294 4.06557 0.757135C3.59673 1.22598 3.33333 1.86186 3.33333 2.5249V10.8582C3.33333 11.5213 3.59673 12.1572 4.06557 12.626C4.53441 13.0948 5.17029 13.3582 5.83333 13.3582H17.5C18.163 13.3582 18.7989 13.0948 19.2678 12.626C19.7366 12.1572 20 11.5213 20 10.8582V2.5249C20 1.86186 19.7366 1.22598 19.2678 0.757135C18.7989 0.288294 18.163 0.0249023 17.5 0.0249023ZM17.1583 1.69157L12.2583 6.59157C12.1809 6.66967 12.0887 6.73167 11.9871 6.77398C11.8856 6.81628 11.7767 6.83807 11.6667 6.83807C11.5567 6.83807 11.4477 6.81628 11.3462 6.77398C11.2446 6.73167 11.1525 6.66967 11.075 6.59157L6.175 1.69157H17.1583ZM18.3333 10.8582C18.3333 11.0792 18.2455 11.2912 18.0893 11.4475C17.933 11.6038 17.721 11.6916 17.5 11.6916H5.83333C5.61232 11.6916 5.40036 11.6038 5.24408 11.4475C5.0878 11.2912 5 11.0792 5 10.8582V2.83324L9.9 7.73323C10.3688 8.2014 11.0042 8.46437 11.6667 8.46437C12.3292 8.46437 12.9646 8.2014 13.4333 7.73323L18.3333 2.83324V10.8582Z"
          />
</svg>
